<svg xmlns="http://www.w3.org/2000/svg" xmlns:xlink="http://www.w3.org/1999/xlink/" width="20cm" height="15cm" baseProfile="tiny" version="1.2" viewBox="0 0 800 600"><title>Spheres</title><desc>Semi-transparent bubbles on a colored background.</desc><defs><radialGradient id="blueBubble" cx="0" cy="0" r="100" fx="-50" fy="-50" gradientUnits="userSpaceOnUse"><stop offset="0%" stop-color="#fff" stop-opacity="1"/><stop offset="25%" stop-color="#cdcdff" stop-opacity=".65"/><stop offset="100%" stop-color="#cdaacd" stop-opacity=".75"/></radialGradient><radialGradient id="redBubble" cx="0" cy="0" r="100" fx="-50" fy="-50" gradientUnits="userSpaceOnUse"><stop offset="0%" stop-color="#fff" stop-opacity="1"/><stop offset="25%" stop-color="#ffcdcd" stop-opacity=".65"/><stop offset="100%" stop-color="#bb9" stop-opacity=".75"/></radialGradient><radialGradient id="greenBubble" cx="0" cy="0" r="100" fx="-50" fy="-50" gradientUnits="userSpaceOnUse"><stop offset="0%" stop-color="#fff" stop-opacity="1"/><stop offset="25%" stop-color="#cdffcd" stop-opacity=".65"/><stop offset="100%" stop-color="#9aa" stop-opacity=".75"/></radialGradient><radialGradient id="yellowBubble" cx="0" cy="0" r="100" fx="-50" fy="-50" gradientUnits="userSpaceOnUse"><stop offset="0%" stop-color="#fff" stop-opacity="1"/><stop offset="25%" stop-color="#ffffcd" stop-opacity=".65"/><stop offset="100%" stop-color="#bba" stop-opacity=".75"/></radialGradient><radialGradient id="background" cx="0" cy="0" r="400" fx="250" fy="250" gradientUnits="userSpaceOnUse"><stop offset="0%" stop-color="#ffe"/><stop offset="100%" stop-color="#cca"/></radialGradient><linearGradient id="surface" x1="-100" x2="400" y1="200" y2="200" gradientUnits="userSpaceOnUse"><stop offset="0%" stop-color="#ffc"/><stop offset="100%" stop-color="#bb8"/></linearGradient><radialGradient id="blueSphere" cx="0" cy="0" r="100" fx="-50" fy="-50" gradientUnits="userSpaceOnUse"><stop offset="0%" stop-color="#fff"/><stop offset="75%" stop-color="#00f"/><stop offset="100%" stop-color="#224"/></radialGradient><radialGradient id="redSphere" cx="0" cy="0" r="100" fx="-50" fy="-50" gradientUnits="userSpaceOnUse"><stop offset="0%" stop-color="#fff"/><stop offset="75%" stop-color="red"/><stop offset="100%" stop-color="#422"/></radialGradient><radialGradient id="greenSphere" cx="0" cy="0" r="100" fx="-50" fy="-50" gradientUnits="userSpaceOnUse"><stop offset="0%" stop-color="#fff"/><stop offset="75%" stop-color="green"/><stop offset="100%" stop-color="#131"/></radialGradient><radialGradient id="yellowSphere" cx="0" cy="0" r="100" fx="-50" fy="-50" gradientUnits="userSpaceOnUse"><stop offset="0%" stop-color="#fff"/><stop offset="75%" stop-color="#ff0"/><stop offset="100%" stop-color="#442"/></radialGradient><radialGradient id="shadowGrad" cx="0" cy="0" r="100" fx="-50" fy="50" gradientUnits="userSpaceOnUse"><stop offset="0%" stop-color="#000" stop-opacity="1"/><stop offset="100%" stop-color="#000" stop-opacity="0"/></radialGradient><circle id="shadow" cx="0" cy="0" r="100" fill="url(#shadowGrad)"/><g id="bubble"><circle cx="0" cy="0" r="50" fill="#000"/><circle cx="0" cy="0" r="33" fill="#a6ce39"/><path fill="#000" d="M 37,50 L 50,37 L 12,-1 L 22,-11 L 10,-24 L -24,10 L -11,22 L -1,12 Z"/><circle cx="0" cy="0" r="100"/></g></defs><g><rect width="800" height="600" x="0" y="0" fill="url(#background)"/></g><g transform="translate(200,700)"><use fill="url(#blueBubble)" xlink:href="#bubble"/><animateTransform fill="freeze" additive="sum" attributeName="transform" begin="1s" dur="10s" repeatCount="indefinite" type="translate" values="0,0; 0,-800"/></g><g transform="translate(315,700)"><g transform="scale(0.5,0.5)"><use fill="url(#redBubble)" xlink:href="#bubble"/></g><animateTransform fill="freeze" additive="sum" attributeName="transform" begin="3s" dur="7s" repeatCount="indefinite" type="translate" values="0,0; 0,-800"/></g><g transform="translate(80,700)"><g transform="scale(0.65,0.65)"><use fill="url(#greenBubble)" xlink:href="#bubble"/></g><animateTransform fill="freeze" additive="sum" attributeName="transform" begin="5s" dur="9s" repeatCount="indefinite" type="translate" values="0,0; 0,-800"/></g><g transform="translate(255,700)"><g transform="scale(0.3,0.3)"><use fill="url(#yellowBubble)" xlink:href="#bubble"/></g><animateTransform fill="freeze" additive="sum" attributeName="transform" begin="2s" dur="6s" repeatCount="indefinite" type="translate" values="0,0; 0,-800"/></g><g transform="translate(565,700)"><g transform="scale(0.4,0.4)"><use fill="url(#blueBubble)" xlink:href="#bubble"/></g><animateTransform fill="freeze" additive="sum" attributeName="transform" begin="4s" dur="8s" repeatCount="indefinite" type="translate" values="0,0; 0,-800"/></g><g transform="translate(715,700)"><g transform="scale(0.6,0.6)"><use fill="url(#redBubble)" xlink:href="#bubble"/></g><animateTransform fill="freeze" additive="sum" attributeName="transform" begin="1s" dur="4s" repeatCount="indefinite" type="translate" values="0,0; 0,-800"/></g><g transform="translate(645,700)"><g transform="scale(0.375,0.375)"><use fill="url(#greenBubble)" xlink:href="#bubble"/></g><animateTransform fill="freeze" additive="sum" attributeName="transform" begin="0s" dur="11s" repeatCount="indefinite" type="translate" values="0,0; 0,-800"/></g><g transform="translate(555,700)"><g transform="scale(0.9,0.9)"><use fill="url(#yellowBubble)" xlink:href="#bubble"/></g><animateTransform fill="freeze" additive="sum" attributeName="transform" begin="3s" dur="7.5s" repeatCount="indefinite" type="translate" values="0,0; 0,-800"/></g><g transform="translate(360,700)"><g transform="scale(0.5,0.5)"><use fill="url(#blueBubble)" xlink:href="#bubble"/></g><animateTransform fill="freeze" additive="sum" attributeName="transform" begin="3s" dur="6s" repeatCount="indefinite" type="translate" values="0,0; 0,-800"/></g><g transform="translate(215,700)"><g transform="scale(0.45,0.45)"><use fill="url(#redBubble)" xlink:href="#bubble"/></g><animateTransform fill="freeze" additive="sum" attributeName="transform" begin="5.5s" dur="7s" repeatCount="indefinite" type="translate" values="0,0; 0,-800"/></g><g transform="translate(420,700)"><g transform="scale(0.75,0.75)"><use fill="url(#greenBubble)" xlink:href="#bubble"/></g><animateTransform fill="freeze" additive="sum" attributeName="transform" begin="1s" dur="9s" repeatCount="indefinite" type="translate" values="0,0; 0,-800"/></g><g transform="translate(815,700)"><g transform="scale(0.6,0.6)"><use fill="url(#yellowBubble)" xlink:href="#bubble"/></g><animateTransform fill="freeze" additive="sum" attributeName="transform" begin="2s" dur="9.5s" repeatCount="indefinite" type="translate" values="0,0; 0,-800"/></g><g><g><path fill="url(#surface)" stroke="none" d="M 0 0 L 350 0 L 450 450 L -100 450 z" transform="translate(225,375) scale(1.0,0.5)"/></g></g><g><g transform="translate(200,0) translate(200,490) scale(2.0,1.0) rotate(45)"><rect width="138" height="138" x="-69" y="-69" fill="#a6ce39"/><circle cx="0" cy="0" r="50" fill="#000"/><circle cx="0" cy="0" r="33" fill="#a6ce39"/><path fill="#000" d="M 37,50 L 50,37 L 12,-1 L 22,-11 L 10,-24 L -24,10 L -11,22 L -1,12 Z"/><animateTransform fill="freeze" additive="sum" attributeName="transform" begin="0s" dur="10s" repeatCount="indefinite" type="rotate" values="0; 360"/></g><g transform="translate(200,0) translate(200,375)"><use transform="translate(25,55) scale(1.0,0.5)" xlink:href="#shadow"/><circle cx="0" cy="0" r="100" fill="url(#blueSphere)"/></g><g><g transform="translate(200,0) translate(315,440) scale(0.5,0.5)"><use transform="translate(25,55) scale(1.0,0.5)" xlink:href="#shadow"/><circle cx="0" cy="0" r="100" fill="url(#redSphere)"/></g></g><g><g transform="translate(200,0) translate(80,475) scale(0.65,0.65)"><use transform="translate(25,55) scale(1.0,0.5)" xlink:href="#shadow"/><circle cx="0" cy="0" r="100" fill="url(#greenSphere)"/></g></g><g><g transform="translate(200,0) translate(255,525) scale(0.3,0.3)"><use transform="translate(25,55) scale(1.0,0.5)" xlink:href="#shadow"/><circle cx="0" cy="0" r="100" fill="url(#yellowSphere)"/></g></g></g></svg>