<svg xmlns="http://www.w3.org/2000/svg" width="10cm" height="10cm" baseProfile="tiny" version="1.2" viewBox="0 0 1000 1000"><title>Example cubic02 - cubic Bezier commands in path data</title><desc>Picture showing examples of &quot;C&quot; and &quot;S&quot; commands, along with annotations showing the control points and end points</desc><rect width="998" height="998" x="1" y="1" fill="none" stroke="#00f" stroke-width="1"/><polyline fill="none" stroke="#888" stroke-width="2" points="100 200 100 100"/><polyline fill="none" stroke="#888" stroke-width="2" points="400 100 400 200"/><path fill="none" stroke="red" stroke-width="5" d="M100,200 C100,100 400,100 400,200"/><circle cx="100" cy="200" r="10" fill="none" stroke="#888" stroke-width="2"/><circle cx="400" cy="200" r="10" fill="none" stroke="#888" stroke-width="2"/><circle cx="100" cy="100" r="10" class="CtlPoint"/><circle cx="400" cy="100" r="10" class="CtlPoint"/><text x="250" y="275" font-family="Verdana" font-size="22" text-anchor="middle">M100,200 C100,100 400,100 400,200</text><polyline fill="none" stroke="#888" stroke-width="2" points="100 500 25 400"/><polyline fill="none" stroke="#888" stroke-width="2" points="475 400 400 500"/><path fill="none" stroke="red" stroke-width="5" d="M100,500 C25,400 475,400 400,500"/><circle cx="100" cy="500" r="10" fill="none" stroke="#888" stroke-width="2"/><circle cx="400" cy="500" r="10" fill="none" stroke="#888" stroke-width="2"/><circle cx="25" cy="400" r="10" fill="#888" stroke="none"/><circle cx="475" cy="400" r="10" fill="#888" stroke="none"/><text x="250" y="575" font-family="Verdana" font-size="22" text-anchor="middle">M100,500 C25,400 475,400 400,500</text><polyline fill="none" stroke="#888" stroke-width="2" points="100 800 175 700"/><polyline fill="none" stroke="#888" stroke-width="2" points="325 700 400 800"/><path fill="none" stroke="red" stroke-width="5" d="M100,800 C175,700 325,700 400,800"/><circle cx="100" cy="800" r="10" fill="none" stroke="#888" stroke-width="2"/><circle cx="400" cy="800" r="10" fill="none" stroke="#888" stroke-width="2"/><circle cx="175" cy="700" r="10" fill="#888" stroke="none"/><circle cx="325" cy="700" r="10" fill="#888" stroke="none"/><text x="250" y="875" font-family="Verdana" font-size="22" text-anchor="middle">M100,800 C175,700 325,700 400,800</text><polyline fill="none" stroke="#888" stroke-width="2" points="600 200 675 100"/><polyline fill="none" stroke="#888" stroke-width="2" points="975 100 900 200"/><path fill="none" stroke="red" stroke-width="5" d="M600,200 C675,100 975,100 900,200"/><circle cx="600" cy="200" r="10" fill="none" stroke="#888" stroke-width="2"/><circle cx="900" cy="200" r="10" fill="none" stroke="#888" stroke-width="2"/><circle cx="675" cy="100" r="10" fill="#888" stroke="none"/><circle cx="975" cy="100" r="10" fill="#888" stroke="none"/><text x="750" y="275" font-family="Verdana" font-size="22" text-anchor="middle">M600,200 C675,100 975,100 900,200</text><polyline fill="none" stroke="#888" stroke-width="2" points="600 500 600 350"/><polyline fill="none" stroke="#888" stroke-width="2" points="900 650 900 500"/><path fill="none" stroke="red" stroke-width="5" d="M600,500 C600,350 900,650 900,500"/><circle cx="600" cy="500" r="10" fill="none" stroke="#888" stroke-width="2"/><circle cx="900" cy="500" r="10" fill="none" stroke="#888" stroke-width="2"/><circle cx="600" cy="350" r="10" fill="#888" stroke="none"/><circle cx="900" cy="650" r="10" fill="#888" stroke="none"/><text x="750" y="575" font-family="Verdana" font-size="22" text-anchor="middle">M600,500 C600,350 900,650 900,500</text><polyline fill="none" stroke="#888" stroke-width="2" points="600 800 625 700"/><polyline fill="none" stroke="#888" stroke-width="2" points="725 700 750 800"/><polyline fill="none" stroke="#888" stroke-width="2" points="750 800 775 900"/><polyline fill="none" stroke="#888" stroke-width="2" points="875 900 900 800"/><path fill="none" stroke="red" stroke-width="5" d="M600,800 C625,700 725,700 750,800 S875,900 900,800"/><circle cx="600" cy="800" r="10" fill="none" stroke="#888" stroke-width="2"/><circle cx="750" cy="800" r="10" fill="none" stroke="#888" stroke-width="2"/><circle cx="900" cy="800" r="10" fill="none" stroke="#888" stroke-width="2"/><circle cx="625" cy="700" r="10" fill="#888" stroke="none"/><circle cx="725" cy="700" r="10" fill="#888" stroke="none"/><circle cx="875" cy="900" r="10" fill="#888" stroke="none"/><circle cx="775" cy="900" r="9" fill="none" stroke="#00f" stroke-width="4"/><text x="750" y="945" font-family="Verdana" font-size="22" text-anchor="middle">M600,800 C625,700 725,700 750,800</text><text x="750" y="975" font-family="Verdana" font-size="22" text-anchor="middle">S875,900 900,800</text></svg>