<svg xmlns="http://www.w3.org/2000/svg" xmlns:xlink="http://www.w3.org/1999/xlink/" width="8cm" height="8cm" baseProfile="tiny" version="1.2" viewBox="0 0 400 400"><title>Spheres</title><desc>Gradient filled spheres with different colors.</desc><defs><radialGradient id="blueSphere" cx="0" cy="0" r="100" fx="-50" fy="-50" gradientUnits="userSpaceOnUse"><stop offset="0%" stop-color="#fff"/><stop offset="75%" stop-color="#00f"/><stop offset="100%" stop-color="#224"/></radialGradient><radialGradient id="redSphere" cx="0" cy="0" r="100" fx="-50" fy="-50" gradientUnits="userSpaceOnUse"><stop offset="0%" stop-color="#fff"/><stop offset="75%" stop-color="red"/><stop offset="100%" stop-color="#422"/></radialGradient><radialGradient id="greenSphere" cx="0" cy="0" r="100" fx="-50" fy="-50" gradientUnits="userSpaceOnUse"><stop offset="0%" stop-color="#fff"/><stop offset="75%" stop-color="green"/><stop offset="100%" stop-color="#131"/></radialGradient><radialGradient id="yellowSphere" cx="0" cy="0" r="100" fx="-50" fy="-50" gradientUnits="userSpaceOnUse"><stop offset="0%" stop-color="#fff"/><stop offset="75%" stop-color="#ff0"/><stop offset="100%" stop-color="#442"/></radialGradient><radialGradient id="shadowGrad" cx="0" cy="0" r="100" fx="-50" fy="50" gradientUnits="userSpaceOnUse"><stop offset="0%" stop-color="#000" stop-opacity="1"/><stop offset="100%" stop-color="#fff" stop-opacity="0"/></radialGradient><circle id="shadow" cx="0" cy="0" r="100" fill="url(#shadowGrad)"/></defs><g fill="#fe9" stroke="none"><rect width="400" height="400" x="0" y="0"/></g><g fill="#fff" stroke="none"><rect width="400" height="225" x="0" y="175"/></g><g transform="translate(200,175)"><use transform="translate(25,55) scale(1.0,0.5)" xlink:href="#shadow"/><circle cx="0" cy="0" r="100" fill="url(#blueSphere)"/></g><g><g transform="translate(315,240) scale(0.5,0.5)"><use transform="translate(25,55) scale(1.0,0.5)" xlink:href="#shadow"/><circle cx="0" cy="0" r="100" fill="url(#redSphere)"/></g></g><g><g transform="translate(80,275) scale(0.65,0.65)"><use transform="translate(25,55) scale(1.0,0.5)" xlink:href="#shadow"/><circle cx="0" cy="0" r="100" fill="url(#greenSphere)"/></g></g><g><g transform="translate(255,325) scale(0.3,0.3)"><use transform="translate(25,55) scale(1.0,0.5)" xlink:href="#shadow"/><circle cx="0" cy="0" r="100" fill="url(#yellowSphere)"/></g></g></svg>